<svg xmlns="http://www.w3.org/2000/svg" xmlns:xlink="http://www.w3.org/1999/xlink" width="500" zoomAndPan="magnify" viewBox="0 0 375 374.999991" height="500" preserveAspectRatio="xMidYMid meet" version="1.0"><defs><clipPath id="b156e59cb8"><path d="M 24.613281 0 L 349.542969 0 L 349.542969 324.929688 L 24.613281 324.929688 Z M 24.613281 0 " clip-rule="nonzero"/></clipPath><clipPath id="19a786ed28"><path d="M 171.71875 358.34375 L 203.386719 358.34375 L 203.386719 375 L 171.71875 375 Z M 171.71875 358.34375 " clip-rule="nonzero"/></clipPath><clipPath id="31be24d27b"><path d="M 185 79.519531 L 190 79.519531 L 190 98 L 185 98 Z M 185 79.519531 " clip-rule="nonzero"/></clipPath><clipPath id="93811d7185"><path d="M 323.433594 241.089844 L 349.535156 241.089844 L 349.535156 245.722656 L 323.433594 245.722656 Z M 323.433594 241.089844 " clip-rule="nonzero"/></clipPath><clipPath id="b9b43bbde2"><path d="M 24.613281 240 L 51 240 L 51 245 L 24.613281 245 Z M 24.613281 240 " clip-rule="nonzero"/></clipPath></defs><g clip-path="url(#b156e59cb8)"><path fill="#fad02c" d="M 350.367188 162.878906 C 350.367188 165.542969 350.300781 168.207031 350.167969 170.871094 C 350.039062 173.53125 349.84375 176.1875 349.582031 178.84375 C 349.320312 181.496094 348.992188 184.140625 348.601562 186.777344 C 348.210938 189.414062 347.757812 192.039062 347.234375 194.652344 C 346.714844 197.265625 346.132812 199.867188 345.484375 202.453125 C 344.835938 205.039062 344.125 207.605469 343.351562 210.15625 C 342.578125 212.707031 341.742188 215.238281 340.84375 217.75 C 339.945312 220.257812 338.988281 222.746094 337.96875 225.207031 C 336.949219 227.671875 335.867188 230.105469 334.726562 232.515625 C 333.589844 234.925781 332.390625 237.304688 331.132812 239.65625 C 329.875 242.007812 328.5625 244.328125 327.191406 246.613281 C 325.824219 248.898438 324.398438 251.152344 322.914062 253.367188 C 321.433594 255.582031 319.902344 257.761719 318.3125 259.902344 C 316.726562 262.042969 315.085938 264.144531 313.394531 266.207031 C 311.703125 268.265625 309.960938 270.285156 308.171875 272.257812 C 306.382812 274.234375 304.546875 276.164062 302.660156 278.046875 C 300.773438 279.933594 298.84375 281.769531 296.871094 283.5625 C 294.894531 285.351562 292.878906 287.09375 290.816406 288.78125 C 288.757812 290.472656 286.65625 292.113281 284.515625 293.703125 C 282.375 295.289062 280.195312 296.824219 277.976562 298.304688 C 275.761719 299.785156 273.511719 301.210938 271.222656 302.582031 C 268.9375 303.953125 266.621094 305.265625 264.269531 306.523438 C 261.917969 307.777344 259.539062 308.976562 257.128906 310.117188 C 254.71875 311.257812 252.28125 312.335938 249.820312 313.355469 C 247.355469 314.375 244.871094 315.335938 242.359375 316.234375 C 239.851562 317.132812 237.320312 317.96875 234.769531 318.742188 C 232.21875 319.515625 229.648438 320.226562 227.066406 320.875 C 224.480469 321.519531 221.878906 322.105469 219.265625 322.625 C 216.648438 323.144531 214.023438 323.601562 211.386719 323.992188 C 208.75 324.382812 206.105469 324.707031 203.453125 324.96875 C 200.800781 325.230469 198.144531 325.425781 195.480469 325.558594 C 192.816406 325.6875 190.152344 325.753906 187.488281 325.753906 C 184.824219 325.753906 182.160156 325.6875 179.496094 325.558594 C 176.835938 325.425781 174.175781 325.230469 171.523438 324.96875 C 168.871094 324.707031 166.226562 324.382812 163.589844 323.992188 C 160.953125 323.601562 158.328125 323.144531 155.710938 322.625 C 153.097656 322.105469 150.5 321.519531 147.914062 320.875 C 145.328125 320.226562 142.757812 319.515625 140.207031 318.742188 C 137.65625 317.96875 135.125 317.132812 132.617188 316.234375 C 130.105469 315.335938 127.621094 314.375 125.15625 313.355469 C 122.695312 312.335938 120.257812 311.257812 117.847656 310.117188 C 115.441406 308.976562 113.058594 307.777344 110.707031 306.523438 C 108.359375 305.265625 106.039062 303.953125 103.753906 302.582031 C 101.464844 301.210938 99.214844 299.785156 97 298.304688 C 94.78125 296.824219 92.605469 295.289062 90.460938 293.703125 C 88.320312 292.113281 86.222656 290.472656 84.160156 288.78125 C 82.101562 287.09375 80.082031 285.351562 78.105469 283.5625 C 76.132812 281.769531 74.203125 279.933594 72.316406 278.046875 C 70.433594 276.164062 68.59375 274.234375 66.804688 272.257812 C 65.015625 270.285156 63.273438 268.265625 61.582031 266.207031 C 59.890625 264.144531 58.253906 262.042969 56.664062 259.902344 C 55.078125 257.761719 53.542969 255.582031 52.0625 253.367188 C 50.582031 251.152344 49.15625 248.898438 47.785156 246.613281 C 46.414062 244.328125 45.101562 242.007812 43.84375 239.65625 C 42.585938 237.304688 41.390625 234.925781 40.25 232.515625 C 39.109375 230.105469 38.03125 227.671875 37.007812 225.207031 C 35.988281 222.746094 35.03125 220.257812 34.132812 217.75 C 33.234375 215.238281 32.398438 212.707031 31.625 210.15625 C 30.851562 207.605469 30.140625 205.039062 29.492188 202.453125 C 28.84375 199.867188 28.261719 197.265625 27.742188 194.652344 C 27.222656 192.039062 26.765625 189.414062 26.375 186.777344 C 25.984375 184.140625 25.65625 181.496094 25.394531 178.84375 C 25.132812 176.1875 24.9375 173.53125 24.808594 170.871094 C 24.675781 168.207031 24.613281 165.542969 24.613281 162.878906 C 24.613281 160.210938 24.675781 157.546875 24.808594 154.886719 C 24.9375 152.222656 25.132812 149.566406 25.394531 146.914062 C 25.65625 144.257812 25.984375 141.613281 26.375 138.976562 C 26.765625 136.339844 27.222656 133.714844 27.742188 131.101562 C 28.261719 128.488281 28.84375 125.886719 29.492188 123.300781 C 30.140625 120.714844 30.851562 118.148438 31.625 115.597656 C 32.398438 113.046875 33.234375 110.515625 34.132812 108.003906 C 35.03125 105.496094 35.988281 103.007812 37.007812 100.546875 C 38.03125 98.085938 39.109375 95.648438 40.25 93.238281 C 41.390625 90.828125 42.585938 88.449219 43.84375 86.097656 C 45.101562 83.746094 46.414062 81.429688 47.785156 79.140625 C 49.15625 76.855469 50.582031 74.605469 52.0625 72.386719 C 53.542969 70.171875 55.078125 67.992188 56.664062 65.851562 C 58.253906 63.710938 59.890625 61.609375 61.582031 59.550781 C 63.273438 57.488281 65.015625 55.46875 66.804688 53.496094 C 68.59375 51.519531 70.433594 49.589844 72.316406 47.707031 C 74.203125 45.820312 76.132812 43.984375 78.105469 42.191406 C 80.082031 40.402344 82.101562 38.664062 84.160156 36.972656 C 86.222656 35.28125 88.320312 33.640625 90.460938 32.054688 C 92.605469 30.464844 94.78125 28.929688 97 27.449219 C 99.214844 25.96875 101.464844 24.542969 103.753906 23.171875 C 106.039062 21.800781 108.359375 20.488281 110.707031 19.230469 C 113.058594 17.976562 115.441406 16.777344 117.847656 15.636719 C 120.257812 14.5 122.695312 13.417969 125.15625 12.398438 C 127.621094 11.378906 130.105469 10.417969 132.617188 9.519531 C 135.125 8.625 137.65625 7.789062 140.207031 7.011719 C 142.757812 6.238281 145.328125 5.527344 147.914062 4.882812 C 150.5 4.234375 153.097656 3.648438 155.710938 3.128906 C 158.328125 2.609375 160.953125 2.152344 163.589844 1.761719 C 166.226562 1.371094 168.871094 1.046875 171.523438 0.785156 C 174.175781 0.523438 176.835938 0.328125 179.496094 0.195312 C 182.160156 0.0664062 184.824219 0 187.488281 0 C 190.152344 0 192.816406 0.0664062 195.480469 0.195312 C 198.144531 0.328125 200.800781 0.523438 203.453125 0.785156 C 206.105469 1.046875 208.75 1.371094 211.386719 1.761719 C 214.023438 2.152344 216.648438 2.609375 219.265625 3.128906 C 221.878906 3.648438 224.480469 4.234375 227.066406 4.882812 C 229.648438 5.527344 232.21875 6.238281 234.769531 7.011719 C 237.320312 7.789062 239.851562 8.625 242.359375 9.519531 C 244.871094 10.417969 247.355469 11.378906 249.820312 12.398438 C 252.28125 13.417969 254.71875 14.5 257.128906 15.636719 C 259.539062 16.777344 261.917969 17.976562 264.269531 19.230469 C 266.621094 20.488281 268.9375 21.800781 271.222656 23.171875 C 273.511719 24.542969 275.761719 25.96875 277.976562 27.449219 C 280.195312 28.929688 282.375 30.464844 284.515625 32.054688 C 286.65625 33.640625 288.757812 35.28125 290.816406 36.972656 C 292.878906 38.664062 294.894531 40.402344 296.871094 42.191406 C 298.84375 43.984375 300.773438 45.820312 302.660156 47.707031 C 304.546875 49.589844 306.382812 51.519531 308.171875 53.496094 C 309.960938 55.46875 311.703125 57.488281 313.394531 59.550781 C 315.085938 61.609375 316.726562 63.710938 318.3125 65.851562 C 319.902344 67.992188 321.433594 70.171875 322.914062 72.386719 C 324.398438 74.605469 325.824219 76.855469 327.191406 79.140625 C 328.5625 81.429688 329.875 83.746094 331.132812 86.097656 C 332.390625 88.449219 333.589844 90.828125 334.726562 93.238281 C 335.867188 95.648438 336.949219 98.085938 337.96875 100.546875 C 338.988281 103.007812 339.945312 105.496094 340.84375 108.003906 C 341.742188 110.515625 342.578125 113.046875 343.351562 115.597656 C 344.125 118.148438 344.835938 120.714844 345.484375 123.300781 C 346.132812 125.886719 346.714844 128.488281 347.234375 131.101562 C 347.757812 133.714844 348.210938 136.339844 348.601562 138.976562 C 348.992188 141.613281 349.320312 144.257812 349.582031 146.914062 C 349.84375 149.566406 350.039062 152.222656 350.167969 154.886719 C 350.300781 157.546875 350.367188 160.210938 350.367188 162.878906 Z M 350.367188 162.878906 " fill-opacity="1" fill-rule="nonzero"/></g><path fill="#231f20" d="M 161.261719 169.246094 C 149.441406 169.246094 139.527344 178.527344 138.691406 190.378906 L 138.605469 191.621094 L 137.492188 192.164062 C 125.867188 197.855469 118.644531 209.457031 118.644531 222.449219 C 118.644531 229.371094 120.726562 236.027344 124.664062 241.695312 L 125.179688 242.4375 L 125.015625 243.324219 C 124.957031 243.632812 124.910156 243.941406 124.871094 244.253906 L 124.789062 244.867188 L 124.398438 245.34375 C 118.585938 252.449219 115.386719 261.4375 115.386719 270.65625 C 115.386719 290.289062 129.925781 307.246094 149.207031 310.101562 L 150.054688 310.226562 L 150.582031 310.902344 C 155.800781 317.5625 163.992188 321.910156 173.644531 323.136719 C 175.167969 323.332031 176.652344 322.875 177.808594 321.847656 C 178.964844 320.820312 179.628906 319.347656 179.628906 317.796875 L 179.628906 169.535156 C 179.628906 166.050781 177.105469 164.480469 174.945312 164.199219 C 172.8125 163.917969 170.003906 164.773438 169.125 168.109375 L 168.5625 170.355469 L 166.503906 169.863281 C 164.777344 169.453125 163.015625 169.246094 161.261719 169.246094 Z M 174.304688 327.496094 C 173.90625 327.496094 173.503906 327.472656 173.105469 327.421875 C 162.648438 326.089844 153.679688 321.421875 147.746094 314.242188 C 137.742188 312.558594 128.585938 307.402344 121.882812 299.664062 C 114.925781 291.625 111.09375 281.324219 111.09375 270.65625 C 111.09375 260.730469 114.441406 251.042969 120.542969 243.273438 C 116.488281 237.078125 114.351562 229.898438 114.351562 222.449219 C 114.351562 215.1875 116.394531 208.128906 120.265625 202.039062 C 123.808594 196.457031 128.722656 191.914062 134.527344 188.835938 C 136.097656 175.332031 147.609375 164.925781 161.261719 164.925781 C 162.707031 164.925781 164.160156 165.046875 165.59375 165.28125 C 167.34375 161.511719 171.195312 159.355469 175.5 159.917969 C 179.554688 160.449219 183.921875 163.6875 183.921875 169.535156 L 183.921875 317.796875 C 183.921875 320.585938 182.726562 323.238281 180.648438 325.085938 C 178.886719 326.648438 176.625 327.496094 174.304688 327.496094 " fill-opacity="1" fill-rule="nonzero"/><path fill="#231f20" d="M 151.171875 314.324219 C 149.929688 314.324219 148.679688 314.238281 147.445312 314.0625 L 148.035156 309.789062 C 152.574219 310.421875 157.277344 309.660156 161.277344 307.640625 L 163.203125 311.5 C 159.527344 313.355469 155.359375 314.324219 151.171875 314.324219 " fill-opacity="1" fill-rule="nonzero"/><path fill="#231f20" d="M 164.121094 313.121094 C 166.03125 311.96875 166.652344 309.480469 165.511719 307.554688 C 164.363281 305.632812 161.886719 305.007812 159.976562 306.160156 C 158.0625 307.308594 157.441406 309.800781 158.585938 311.722656 C 159.730469 313.648438 162.207031 314.273438 164.121094 313.121094 " fill-opacity="1" fill-rule="nonzero"/><path fill="#231f20" d="M 141.070312 260.421875 C 132.519531 256.800781 125.425781 250.859375 120.554688 243.242188 L 124.167969 240.90625 C 128.566406 247.789062 134.988281 253.160156 142.734375 256.445312 L 141.070312 260.421875 " fill-opacity="1" fill-rule="nonzero"/><path fill="#231f20" d="M 140.300781 262.148438 C 142.386719 262.933594 144.710938 261.875 145.496094 259.777344 C 146.277344 257.679688 145.222656 255.339844 143.136719 254.550781 C 141.050781 253.761719 138.726562 254.824219 137.941406 256.921875 C 137.15625 259.019531 138.214844 261.359375 140.300781 262.148438 " fill-opacity="1" fill-rule="nonzero"/><path fill="#231f20" d="M 130.800781 196.488281 L 128.230469 193.027344 C 135.445312 187.609375 144.160156 184.542969 153.429688 184.164062 L 153.601562 188.476562 C 145.203125 188.824219 137.316406 191.589844 130.800781 196.488281 " fill-opacity="1" fill-rule="nonzero"/><path fill="#231f20" d="M 153.320312 190.394531 C 155.546875 190.390625 157.351562 188.570312 157.347656 186.328125 C 157.34375 184.089844 155.535156 182.273438 153.308594 182.277344 C 151.078125 182.28125 149.273438 184.101562 149.28125 186.339844 C 149.28125 188.582031 151.09375 190.398438 153.320312 190.394531 " fill-opacity="1" fill-rule="nonzero"/><path fill="#231f20" d="M 159.785156 213.496094 L 157.285156 209.988281 C 163.324219 205.636719 167.710938 199.019531 169.3125 191.832031 C 171.199219 183.40625 169.300781 174.203125 164.242188 167.222656 L 167.714844 164.679688 C 173.488281 172.652344 175.652344 183.15625 173.503906 192.78125 C 171.667969 200.984375 166.667969 208.535156 159.785156 213.496094 " fill-opacity="1" fill-rule="nonzero"/><path fill="#231f20" d="M 156.527344 208.191406 C 154.648438 209.394531 154.09375 211.902344 155.289062 213.792969 C 156.484375 215.683594 158.980469 216.242188 160.859375 215.039062 C 162.738281 213.835938 163.292969 211.328125 162.097656 209.4375 C 160.902344 207.546875 158.40625 206.988281 156.527344 208.191406 " fill-opacity="1" fill-rule="nonzero"/><path fill="#231f20" d="M 181.179688 283.046875 C 174.972656 281.25 169.386719 276.179688 165.03125 268.382812 C 163.523438 265.683594 162.222656 262.863281 160.96875 260.136719 C 159.316406 256.542969 157.753906 253.152344 155.738281 249.96875 C 152.074219 244.175781 146.972656 239.320312 140.980469 235.921875 L 143.089844 232.160156 C 149.691406 235.90625 155.316406 241.261719 159.359375 247.652344 C 161.527344 251.078125 163.222656 254.761719 164.863281 258.320312 C 166.085938 260.976562 167.347656 263.71875 168.773438 266.269531 C 171.417969 271 175.925781 277.03125 182.367188 278.898438 L 181.179688 283.046875 " fill-opacity="1" fill-rule="nonzero"/><path fill="#231f20" d="M 140.34375 237.765625 C 138.367188 236.738281 137.589844 234.289062 138.613281 232.296875 C 139.636719 230.308594 142.074219 229.527344 144.050781 230.558594 C 146.03125 231.585938 146.804688 234.035156 145.78125 236.023438 C 144.761719 238.015625 142.324219 238.792969 140.34375 237.765625 " fill-opacity="1" fill-rule="nonzero"/><path fill="#231f20" d="M 201.042969 164.148438 C 200.785156 164.148438 200.527344 164.167969 200.28125 164.199219 C 198.121094 164.480469 195.601562 166.050781 195.601562 169.535156 L 195.601562 317.796875 C 195.601562 319.347656 196.261719 320.820312 197.417969 321.847656 C 198.578125 322.875 200.058594 323.332031 201.582031 323.136719 C 211.238281 321.910156 219.429688 317.5625 224.648438 310.902344 L 225.175781 310.226562 L 226.019531 310.101562 C 245.300781 307.246094 259.84375 290.289062 259.84375 270.65625 C 259.84375 261.4375 256.640625 252.449219 250.828125 245.34375 L 250.4375 244.867188 L 250.359375 244.253906 C 250.316406 243.941406 250.269531 243.632812 250.214844 243.324219 L 250.050781 242.4375 L 250.5625 241.695312 C 254.503906 236.027344 256.585938 229.371094 256.585938 222.449219 C 256.585938 209.457031 249.363281 197.855469 237.738281 192.164062 L 236.621094 191.621094 L 236.535156 190.378906 C 235.703125 178.527344 225.789062 169.246094 213.964844 169.246094 C 212.214844 169.246094 210.449219 169.453125 208.726562 169.863281 L 206.667969 170.355469 L 206.101562 168.105469 C 205.324219 165.160156 203.039062 164.148438 201.042969 164.148438 Z M 200.921875 327.496094 C 198.605469 327.496094 196.34375 326.648438 194.582031 325.085938 C 192.5 323.238281 191.308594 320.585938 191.308594 317.796875 L 191.308594 169.535156 C 191.308594 163.6875 195.671875 160.449219 199.726562 159.917969 C 204.035156 159.351562 207.886719 161.511719 209.632812 165.28125 C 211.070312 165.046875 212.519531 164.925781 213.964844 164.925781 C 227.617188 164.925781 239.128906 175.332031 240.699219 188.835938 C 246.503906 191.914062 251.417969 196.457031 254.964844 202.039062 C 258.832031 208.128906 260.878906 215.1875 260.878906 222.449219 C 260.878906 229.898438 258.738281 237.078125 254.6875 243.273438 C 260.785156 251.042969 264.136719 260.730469 264.136719 270.65625 C 264.136719 281.324219 260.304688 291.625 253.34375 299.664062 C 246.640625 307.402344 237.484375 312.558594 227.480469 314.242188 C 221.550781 321.421875 212.582031 326.089844 202.125 327.421875 C 201.722656 327.472656 201.324219 327.496094 200.921875 327.496094 " fill-opacity="1" fill-rule="nonzero"/><path fill="#231f20" d="M 224.054688 314.324219 C 219.867188 314.324219 215.703125 313.355469 212.027344 311.5 L 213.953125 307.640625 C 217.953125 309.660156 222.652344 310.425781 227.191406 309.789062 L 227.785156 314.0625 C 226.546875 314.238281 225.300781 314.324219 224.054688 314.324219 " fill-opacity="1" fill-rule="nonzero"/><path fill="#231f20" d="M 215.253906 306.160156 C 213.339844 305.007812 210.863281 305.632812 209.71875 307.554688 C 208.574219 309.480469 209.195312 311.96875 211.109375 313.121094 C 213.019531 314.273438 215.5 313.648438 216.640625 311.722656 C 217.789062 309.800781 217.164062 307.308594 215.253906 306.160156 " fill-opacity="1" fill-rule="nonzero"/><path fill="#231f20" d="M 234.160156 260.421875 L 232.492188 256.445312 C 240.242188 253.160156 246.664062 247.789062 251.0625 240.90625 L 254.671875 243.242188 C 249.804688 250.859375 242.710938 256.800781 234.160156 260.421875 " fill-opacity="1" fill-rule="nonzero"/><path fill="#231f20" d="M 232.089844 254.550781 C 230.003906 255.339844 228.949219 257.679688 229.734375 259.777344 C 230.515625 261.875 232.84375 262.933594 234.929688 262.148438 C 237.015625 261.359375 238.070312 259.019531 237.285156 256.921875 C 236.503906 254.824219 234.175781 253.761719 232.089844 254.550781 " fill-opacity="1" fill-rule="nonzero"/><path fill="#231f20" d="M 244.429688 196.488281 C 237.910156 191.589844 230.027344 188.824219 221.625 188.476562 L 221.800781 184.164062 C 231.070312 184.542969 239.785156 187.609375 247 193.027344 L 244.429688 196.488281 " fill-opacity="1" fill-rule="nonzero"/><path fill="#231f20" d="M 221.921875 182.277344 C 219.695312 182.273438 217.882812 184.089844 217.878906 186.328125 C 217.875 188.570312 219.679688 190.390625 221.910156 190.394531 C 224.136719 190.398438 225.945312 188.582031 225.949219 186.339844 C 225.953125 184.101562 224.148438 182.28125 221.921875 182.277344 " fill-opacity="1" fill-rule="nonzero"/><path fill="#231f20" d="M 215.441406 213.496094 C 208.558594 208.535156 203.558594 200.984375 201.726562 192.78125 C 199.574219 183.15625 201.738281 172.652344 207.515625 164.679688 L 210.984375 167.222656 C 205.925781 174.203125 204.03125 183.40625 205.914062 191.832031 C 207.519531 199.019531 211.902344 205.636719 217.941406 209.988281 L 215.441406 213.496094 " fill-opacity="1" fill-rule="nonzero"/><path fill="#231f20" d="M 214.371094 215.039062 C 216.25 216.242188 218.742188 215.683594 219.941406 213.792969 C 221.136719 211.902344 220.582031 209.394531 218.699219 208.191406 C 216.820312 206.988281 214.328125 207.546875 213.128906 209.4375 C 211.933594 211.328125 212.488281 213.835938 214.371094 215.039062 " fill-opacity="1" fill-rule="nonzero"/><path fill="#231f20" d="M 194.046875 283.046875 L 192.859375 278.898438 C 199.304688 277.03125 203.808594 271 206.457031 266.269531 C 207.882812 263.71875 209.144531 260.976562 210.363281 258.324219 C 212.003906 254.761719 213.699219 251.078125 215.867188 247.652344 C 219.910156 241.261719 225.535156 235.90625 232.140625 232.160156 L 234.25 235.921875 C 228.257812 239.320312 223.152344 244.175781 219.488281 249.96875 C 217.476562 253.152344 215.914062 256.546875 214.257812 260.136719 C 213.003906 262.863281 211.707031 265.683594 210.199219 268.382812 C 205.839844 276.179688 200.253906 281.25 194.046875 283.046875 " fill-opacity="1" fill-rule="nonzero"/><path fill="#231f20" d="M 231.175781 230.558594 C 233.15625 229.527344 235.589844 230.308594 236.613281 232.296875 C 237.636719 234.289062 236.863281 236.738281 234.882812 237.765625 C 232.902344 238.792969 230.46875 238.015625 229.445312 236.023438 C 228.421875 234.035156 229.195312 231.585938 231.175781 230.558594 " fill-opacity="1" fill-rule="nonzero"/><path fill="#231f20" d="M 207.253906 335.472656 L 167.976562 335.472656 C 166.789062 335.472656 165.828125 334.503906 165.828125 333.3125 C 165.828125 332.121094 166.789062 331.15625 167.976562 331.15625 L 207.253906 331.15625 C 208.4375 331.15625 209.398438 332.121094 209.398438 333.3125 C 209.398438 334.503906 208.4375 335.472656 207.253906 335.472656 " fill-opacity="1" fill-rule="nonzero"/><path fill="#231f20" d="M 207.253906 343.980469 L 167.976562 343.980469 C 166.789062 343.980469 165.828125 343.011719 165.828125 341.820312 C 165.828125 340.628906 166.789062 339.664062 167.976562 339.664062 L 207.253906 339.664062 C 208.4375 339.664062 209.398438 340.628906 209.398438 341.820312 C 209.398438 343.011719 208.4375 343.980469 207.253906 343.980469 " fill-opacity="1" fill-rule="nonzero"/><path fill="#231f20" d="M 207.253906 352.484375 L 167.976562 352.484375 C 166.789062 352.484375 165.828125 351.519531 165.828125 350.324219 C 165.828125 349.132812 166.789062 348.167969 167.976562 348.167969 L 207.253906 348.167969 C 208.4375 348.167969 209.398438 349.132812 209.398438 350.324219 C 209.398438 351.519531 208.4375 352.484375 207.253906 352.484375 " fill-opacity="1" fill-rule="nonzero"/><path fill="#231f20" d="M 207.253906 360.992188 L 167.976562 360.992188 C 166.789062 360.992188 165.828125 360.023438 165.828125 358.832031 C 165.828125 357.640625 166.789062 356.675781 167.976562 356.675781 L 207.253906 356.675781 C 208.4375 356.675781 209.398438 357.640625 209.398438 358.832031 C 209.398438 360.023438 208.4375 360.992188 207.253906 360.992188 " fill-opacity="1" fill-rule="nonzero"/><g clip-path="url(#19a786ed28)"><path fill="#231f20" d="M 187.613281 375.898438 C 178.960938 375.898438 171.925781 368.820312 171.925781 360.121094 L 171.925781 359.839844 L 176.21875 359.910156 L 176.214844 360.121094 C 176.214844 366.4375 181.328125 371.582031 187.613281 371.582031 C 193.898438 371.582031 199.011719 366.4375 199.011719 360.121094 C 199.011719 359.757812 198.992188 359.390625 198.960938 359.035156 L 203.234375 358.632812 C 203.28125 359.125 203.304688 359.621094 203.304688 360.121094 C 203.304688 368.820312 196.265625 375.898438 187.613281 375.898438 " fill-opacity="1" fill-rule="nonzero"/></g><path fill="#231f20" d="M 187.613281 138.894531 C 186.429688 138.894531 185.46875 137.929688 185.46875 136.738281 L 185.46875 121.804688 C 185.46875 120.613281 186.429688 119.644531 187.613281 119.644531 C 188.800781 119.644531 189.761719 120.613281 189.761719 121.804688 L 189.761719 136.738281 C 189.761719 137.929688 188.800781 138.894531 187.613281 138.894531 " fill-opacity="1" fill-rule="nonzero"/><g clip-path="url(#31be24d27b)"><path fill="#231f20" d="M 187.613281 97.683594 C 186.429688 97.683594 185.46875 96.71875 185.46875 95.523438 L 185.46875 81.699219 C 185.46875 80.507812 186.429688 79.542969 187.613281 79.542969 C 188.800781 79.542969 189.761719 80.507812 189.761719 81.699219 L 189.761719 95.523438 C 189.761719 96.71875 188.800781 97.683594 187.613281 97.683594 " fill-opacity="1" fill-rule="nonzero"/></g><path fill="#231f20" d="M 262.121094 170.382812 C 261.570312 170.382812 261.019531 170.171875 260.601562 169.75 C 259.765625 168.90625 259.765625 167.539062 260.601562 166.699219 L 280.425781 146.761719 C 281.265625 145.917969 282.625 145.917969 283.460938 146.761719 C 284.300781 147.601562 284.300781 148.96875 283.460938 149.8125 L 263.636719 169.75 C 263.21875 170.171875 262.667969 170.382812 262.121094 170.382812 " fill-opacity="1" fill-rule="nonzero"/><path fill="#231f20" d="M 288.636719 143.714844 C 288.085938 143.714844 287.539062 143.503906 287.121094 143.082031 C 286.28125 142.238281 286.28125 140.871094 287.121094 140.027344 L 299.300781 127.78125 C 300.136719 126.9375 301.496094 126.9375 302.335938 127.78125 C 303.171875 128.621094 303.171875 129.988281 302.335938 130.832031 L 290.15625 143.082031 C 289.734375 143.503906 289.1875 143.714844 288.636719 143.714844 " fill-opacity="1" fill-rule="nonzero"/><path fill="#231f20" d="M 311.050781 245.628906 L 292.664062 245.628906 C 291.480469 245.628906 290.519531 244.660156 290.519531 243.46875 C 290.519531 242.277344 291.480469 241.3125 292.664062 241.3125 L 311.050781 241.3125 C 312.234375 241.3125 313.199219 242.277344 313.199219 243.46875 C 313.199219 244.660156 312.234375 245.628906 311.050781 245.628906 " fill-opacity="1" fill-rule="nonzero"/><g clip-path="url(#93811d7185)"><path fill="#231f20" d="M 347.390625 245.628906 L 325.707031 245.628906 C 324.523438 245.628906 323.5625 244.660156 323.5625 243.46875 C 323.5625 242.277344 324.523438 241.3125 325.707031 241.3125 L 347.390625 241.3125 C 348.574219 241.3125 349.535156 242.277344 349.535156 243.46875 C 349.535156 244.660156 348.574219 245.628906 347.390625 245.628906 " fill-opacity="1" fill-rule="nonzero"/></g><path fill="#231f20" d="M 271.300781 330.558594 C 270.753906 330.558594 270.203125 330.347656 269.785156 329.925781 L 259.839844 319.925781 C 259 319.082031 259 317.714844 259.839844 316.871094 C 260.675781 316.03125 262.035156 316.03125 262.875 316.871094 L 272.820312 326.875 C 273.65625 327.71875 273.65625 329.082031 272.820312 329.925781 C 272.398438 330.347656 271.851562 330.558594 271.300781 330.558594 " fill-opacity="1" fill-rule="nonzero"/><path fill="#231f20" d="M 298.535156 358.839844 L 278.386719 338.578125 C 277.546875 337.734375 277.546875 336.367188 278.386719 335.527344 C 279.226562 334.683594 280.582031 334.683594 281.421875 335.527344 L 301.570312 355.789062 L 298.535156 358.839844 " fill-opacity="1" fill-rule="nonzero"/><path fill="#231f20" d="M 107.214844 324.632812 C 106.664062 324.632812 106.113281 324.421875 105.695312 324 C 104.855469 323.15625 104.855469 321.789062 105.695312 320.949219 L 110.511719 316.105469 C 111.351562 315.261719 112.707031 315.261719 113.546875 316.105469 C 114.386719 316.949219 114.386719 318.3125 113.546875 319.15625 L 108.730469 324 C 108.308594 324.421875 107.761719 324.632812 107.214844 324.632812 " fill-opacity="1" fill-rule="nonzero"/><path fill="#231f20" d="M 73.332031 358.707031 C 72.78125 358.707031 72.234375 358.496094 71.8125 358.074219 C 70.976562 357.230469 70.976562 355.863281 71.8125 355.019531 L 89.445312 337.289062 C 90.28125 336.445312 91.640625 336.445312 92.480469 337.289062 C 93.316406 338.132812 93.316406 339.5 92.480469 340.34375 L 74.847656 358.074219 C 74.429688 358.496094 73.878906 358.707031 73.332031 358.707031 " fill-opacity="1" fill-rule="nonzero"/><path fill="#231f20" d="M 81.484375 244.542969 L 61.886719 244.542969 C 60.703125 244.542969 59.742188 243.574219 59.742188 242.382812 C 59.742188 241.191406 60.703125 240.226562 61.886719 240.226562 L 81.484375 240.226562 C 82.671875 240.226562 83.628906 241.191406 83.628906 242.382812 C 83.628906 243.574219 82.671875 244.542969 81.484375 244.542969 " fill-opacity="1" fill-rule="nonzero"/><g clip-path="url(#b9b43bbde2)"><path fill="#231f20" d="M 47.867188 244.542969 L 26.757812 244.542969 C 25.574219 244.542969 24.613281 243.574219 24.613281 242.382812 C 24.613281 241.191406 25.574219 240.226562 26.757812 240.226562 L 47.867188 240.226562 C 49.050781 240.226562 50.011719 241.191406 50.011719 242.382812 C 50.011719 243.574219 49.050781 244.542969 47.867188 244.542969 " fill-opacity="1" fill-rule="nonzero"/></g><path fill="#231f20" d="M 112.792969 169.613281 C 112.242188 169.613281 111.695312 169.402344 111.273438 168.980469 L 100.40625 158.050781 C 99.566406 157.207031 99.566406 155.839844 100.40625 154.996094 C 101.242188 154.15625 102.601562 154.15625 103.441406 154.996094 L 114.3125 165.929688 C 115.148438 166.773438 115.148438 168.140625 114.3125 168.980469 C 113.890625 169.402344 113.339844 169.613281 112.792969 169.613281 " fill-opacity="1" fill-rule="nonzero"/><path fill="#231f20" d="M 90.132812 146.824219 C 89.582031 146.824219 89.035156 146.613281 88.617188 146.195312 L 72.578125 130.066406 C 71.738281 129.222656 71.738281 127.855469 72.578125 127.011719 C 73.417969 126.167969 74.773438 126.167969 75.613281 127.011719 L 91.652344 143.140625 C 92.488281 143.984375 92.488281 145.351562 91.652344 146.195312 C 91.230469 146.613281 90.683594 146.824219 90.132812 146.824219 " fill-opacity="1" fill-rule="nonzero"/><path fill="#231f20" d="M 152.863281 150.925781 C 152.152344 150.925781 151.453125 150.566406 151.046875 149.914062 L 144.8125 139.957031 C 144.179688 138.949219 144.480469 137.617188 145.484375 136.980469 C 146.488281 136.347656 147.8125 136.648438 148.445312 137.65625 L 154.679688 147.617188 C 155.308594 148.625 155.007812 149.957031 154.003906 150.59375 C 153.648438 150.816406 153.253906 150.925781 152.863281 150.925781 " fill-opacity="1" fill-rule="nonzero"/><path fill="#231f20" d="M 139.488281 129.558594 C 138.777344 129.558594 138.078125 129.199219 137.671875 128.546875 L 128.925781 114.578125 C 128.292969 113.570312 128.59375 112.234375 129.597656 111.601562 C 130.601562 110.964844 131.925781 111.269531 132.558594 112.277344 L 141.304688 126.25 C 141.933594 127.257812 141.632812 128.589844 140.628906 129.226562 C 140.277344 129.449219 139.878906 129.558594 139.488281 129.558594 " fill-opacity="1" fill-rule="nonzero"/><path fill="#231f20" d="M 223.34375 150.925781 C 222.953125 150.925781 222.558594 150.816406 222.203125 150.59375 C 221.199219 149.957031 220.898438 148.625 221.527344 147.617188 L 228.609375 136.300781 C 229.242188 135.292969 230.566406 134.988281 231.570312 135.625 C 232.574219 136.261719 232.875 137.59375 232.246094 138.601562 L 225.160156 149.914062 C 224.753906 150.566406 224.054688 150.925781 223.34375 150.925781 " fill-opacity="1" fill-rule="nonzero"/><path fill="#231f20" d="M 238.535156 126.652344 C 238.144531 126.652344 237.75 126.546875 237.394531 126.324219 C 236.390625 125.6875 236.089844 124.355469 236.722656 123.347656 L 243.648438 112.277344 C 244.28125 111.269531 245.605469 110.964844 246.609375 111.601562 C 247.613281 112.234375 247.914062 113.570312 247.28125 114.578125 L 240.351562 125.644531 C 239.945312 126.296875 239.246094 126.652344 238.535156 126.652344 " fill-opacity="1" fill-rule="nonzero"/><path fill="#231f20" d="M 92.550781 206.109375 L 73.9375 197.546875 C 72.863281 197.054688 72.386719 195.773438 72.882812 194.6875 C 73.375 193.605469 74.648438 193.128906 75.726562 193.625 L 94.335938 202.183594 L 92.550781 206.109375 " fill-opacity="1" fill-rule="nonzero"/><path fill="#231f20" d="M 62.070312 191.875 C 61.773438 191.875 61.46875 191.8125 61.179688 191.679688 L 44.535156 184.023438 C 43.457031 183.53125 42.984375 182.25 43.476562 181.164062 C 43.96875 180.082031 45.246094 179.601562 46.320312 180.101562 L 62.964844 187.753906 C 64.042969 188.25 64.515625 189.53125 64.023438 190.613281 C 63.664062 191.40625 62.882812 191.875 62.070312 191.875 " fill-opacity="1" fill-rule="nonzero"/><path fill="#231f20" d="M 281.597656 206.109375 L 279.8125 202.183594 L 299.003906 193.355469 C 300.082031 192.859375 301.355469 193.335938 301.847656 194.421875 C 302.339844 195.507812 301.867188 196.785156 300.789062 197.28125 L 281.597656 206.109375 " fill-opacity="1" fill-rule="nonzero"/><path fill="#231f20" d="M 321.210938 187.675781 C 320.394531 187.675781 319.617188 187.207031 319.257812 186.414062 C 318.761719 185.332031 319.238281 184.050781 320.316406 183.554688 L 327.828125 180.101562 C 328.90625 179.601562 330.175781 180.082031 330.671875 181.164062 C 331.164062 182.25 330.691406 183.53125 329.613281 184.023438 L 322.101562 187.480469 C 321.8125 187.613281 321.507812 187.675781 321.210938 187.675781 " fill-opacity="1" fill-rule="nonzero"/><path fill="#231f20" d="M 79.933594 288.257812 C 79.164062 288.257812 78.421875 287.839844 78.039062 287.109375 C 77.480469 286.058594 77.878906 284.75 78.925781 284.191406 L 91.675781 277.382812 C 92.722656 276.824219 94.019531 277.226562 94.574219 278.277344 C 95.132812 279.328125 94.734375 280.636719 93.6875 281.195312 L 80.9375 288.003906 C 80.617188 288.175781 80.273438 288.257812 79.933594 288.257812 " fill-opacity="1" fill-rule="nonzero"/><path fill="#231f20" d="M 50.300781 304.363281 L 48.285156 300.554688 L 67.183594 290.460938 C 68.230469 289.902344 69.53125 290.300781 70.085938 291.355469 C 70.640625 292.40625 70.246094 293.714844 69.199219 294.273438 L 50.300781 304.363281 " fill-opacity="1" fill-rule="nonzero"/><path fill="#231f20" d="M 291.75 286.113281 C 291.410156 286.113281 291.066406 286.03125 290.746094 285.859375 L 282.011719 281.195312 C 280.964844 280.636719 280.566406 279.328125 281.121094 278.277344 C 281.679688 277.226562 282.976562 276.824219 284.023438 277.382812 L 292.757812 282.046875 C 293.804688 282.605469 294.203125 283.914062 293.644531 284.964844 C 293.261719 285.695312 292.519531 286.113281 291.75 286.113281 " fill-opacity="1" fill-rule="nonzero"/><path fill="#231f20" d="M 326.40625 304.617188 C 326.066406 304.617188 325.71875 304.535156 325.402344 304.363281 L 304.316406 293.105469 C 303.269531 292.546875 302.871094 291.242188 303.425781 290.1875 C 303.984375 289.136719 305.28125 288.734375 306.328125 289.292969 L 327.414062 300.554688 C 328.457031 301.113281 328.859375 302.417969 328.304688 303.46875 C 327.917969 304.199219 327.175781 304.617188 326.40625 304.617188 " fill-opacity="1" fill-rule="nonzero"/></svg>